<svg version="1.1" class="clearos-svg clearfoundation app-vendor-clearfoundation app-free app-category-network app-sub-category-firewall" viewBox="0 0 400 400" preserveAspectRatio="xMinYMin" xmlns="http://www.w3.org/2000/svg" xmlns:xlink= "http://www.w3.org/1999/xlink">
<path fill="#AA0707" d="M91.666,184.647"/>
<path fill="#AA0707" d="M123.245,247.805"/>
<path fill="#AA0707" d="M91.666,184.647"/>
<path fill="#AA0707" d="M123.245,247.805"/>
<g>
	<path fill="#686868" d="M160.879,160.552c-16.626-27.106-10.025-30.72-33.41-72.693c-0.594,33.574-0.336,43.443-5.99,37.172
		c-17.973-19.935-35.381-46.769-37.783-93.552C82.491,181.386-62.622,171.5,39.915,310.334
		c-0.602-49.771,12.607-100.168,60.563-100.168c28.78,0,57.631,46.77,45.58,101.355
		C215.625,256.342,181.236,191.242,160.879,160.552z"/>
	<polygon fill="#686868" points="261.77,66.125 261.736,98.385 367.941,217.395 261.705,336.27 261.674,368.521 396.723,217.395 	
		"/>
	<g>
		<path fill="#686868" d="M338.536,217.395L203.604,66.125l-0.03,42.717h-45.462c1.854,10.809,4.591,19.458,13.1,26.997
			c24.229,23.587,44.758,47.362,49.014,80.991c4.756,52.055-10.871,87.248-28.57,109.115h11.857v42.576L338.536,217.395z"/>
	</g>
</g>
</svg>
